<?xml version="1.0" encoding="UTF-8"?>
<svg version="1.1" xmlns="http://www.w3.org/2000/svg" width="1080" height="1080">
<path d="M0 0 C356.4 0 712.8 0 1080 0 C1080 356.4 1080 712.8 1080 1080 C723.6 1080 367.2 1080 0 1080 C0 723.6 0 367.2 0 0 Z " fill="#FCFAF6" transform="translate(0,0)"/>
<path d="M0 0 C1.62745328 -0.00791879 3.25490487 -0.01618877 4.88235474 -0.02478027 C10.18660863 -0.05077374 15.49086957 -0.06627524 20.79516602 -0.08056641 C22.63089564 -0.08593359 24.46662524 -0.09131111 26.30235481 -0.09669876 C33.94008295 -0.11828543 41.57780914 -0.13702129 49.21555996 -0.14832115 C60.11808206 -0.16456613 71.02024838 -0.19780576 81.92263645 -0.254722 C89.61555106 -0.29350197 97.30837076 -0.31296278 105.0013805 -0.31824172 C109.58485318 -0.32188127 114.16794436 -0.33375528 118.75131035 -0.36634445 C123.06320433 -0.39657135 127.37448867 -0.40268536 131.68646622 -0.39096069 C133.26015188 -0.39074124 134.83386714 -0.39893864 136.40745354 -0.41661453 C148.40083533 -0.54390615 159.05296836 1.4126121 168.61157227 9.19287109 C180.61157227 21.27395217 180.61157227 21.27395217 180.61157227 27.19287109 C181.27157227 27.19287109 181.93157227 27.19287109 182.61157227 27.19287109 C184.05656765 29.16769811 185.34757112 31.10590517 186.61157227 33.19287109 C186.99055664 33.81548828 187.36954102 34.43810547 187.76000977 35.07958984 C190.61157227 39.90297748 190.61157227 39.90297748 190.61157227 42.19287109 C191.27157227 42.19287109 191.93157227 42.19287109 192.61157227 42.19287109 C194.08466338 44.29306123 195.42466862 46.37054838 196.73657227 48.56787109 C197.10911133 49.17115234 197.48165039 49.77443359 197.86547852 50.39599609 C200.61157227 54.92252425 200.61157227 54.92252425 200.61157227 57.19287109 C201.27157227 57.19287109 201.93157227 57.19287109 202.61157227 57.19287109 C202.77657227 57.79099609 202.94157227 58.38912109 203.11157227 59.00537109 C205.42433431 62.37814908 208.81048563 63.0260259 212.61157227 64.19287109 C212.61157227 64.85287109 212.61157227 65.51287109 212.61157227 66.19287109 C213.26111028 66.19010571 213.91064829 66.18734034 214.57986927 66.18449116 C230.4229012 66.11808652 246.26588437 66.06852033 262.10902119 66.03743458 C269.77081123 66.02200015 277.43250808 66.00097659 285.09423828 65.96655273 C291.77628638 65.936545 298.45826695 65.91727123 305.14038056 65.91060561 C308.67482666 65.90671249 312.20907963 65.89763568 315.74346352 65.87568092 C319.69994203 65.85130614 323.65623581 65.85090836 327.61279297 65.85229492 C328.77013947 65.84150909 329.92748596 65.83072327 331.11990356 65.8196106 C347.46226535 65.88132083 358.67589925 71.95584144 370.45922852 83.01318359 C382.01765614 94.71845149 384.92053613 109.19801974 384.8789978 125.09487915 C384.88352892 126.37422093 384.88806003 127.65356271 384.89272845 128.97167242 C384.90490152 132.50249952 384.90470474 136.03323148 384.9023397 139.56407475 C384.90193007 143.38020473 384.91298459 147.19630478 384.92245483 151.01242065 C384.93903518 158.48191643 384.94456306 165.95138063 384.94567959 173.42089327 C384.9466316 179.49654626 384.9507495 185.57218888 384.95708084 191.64783859 C384.97468616 208.8946695 384.98392097 226.14147556 384.98241989 243.38831551 C384.98230002 244.78164621 384.98230002 244.78164621 384.98217773 246.203125 C384.98209597 247.13315387 384.98201421 248.06318274 384.98192997 249.0213943 C384.98111756 264.08420483 385.00024575 279.14691525 385.02845447 294.20969684 C385.05722776 309.69688127 385.07099228 325.18401695 385.06926692 340.67122877 C385.06860449 349.35769148 385.07403194 358.04404927 385.09562302 366.73048782 C385.11389355 374.12813296 385.11813429 381.52562564 385.10460417 388.92328365 C385.09810361 392.69230717 385.09785067 396.46103869 385.11531067 400.23003387 C385.24178937 429.24896216 385.24178937 429.24896216 380.61157227 441.19287109 C379.95157227 441.19287109 379.29157227 441.19287109 378.61157227 441.19287109 C378.51875977 441.91861328 378.42594727 442.64435547 378.33032227 443.39208984 C375.97657863 452.56401475 365.67428118 461.04144422 357.90063477 465.88037109 C342.6768424 474.04326244 328.14055327 474.77554137 311.27412415 474.69407654 C309.02996045 474.6979747 306.78579924 474.70361925 304.5416438 474.71084744 C298.407558 474.72554554 292.2737304 474.71545435 286.13965309 474.70111072 C280.193543 474.69111855 274.24746822 474.69998736 268.30136203 474.70823466 C255.39807521 474.72538307 242.49487364 474.71991382 229.59158863 474.70487747 C218.30133376 474.69180611 207.0111084 474.68663351 195.72084618 474.68919563 C194.97083247 474.68935605 194.22081876 474.68951646 193.44807736 474.68968174 C190.40326957 474.69034536 187.3584618 474.69104778 184.31365404 474.69180708 C155.77656393 474.69882438 127.23952577 474.68336166 98.70244889 474.65718362 C73.36411629 474.63406305 48.02584077 474.62868373 22.6875 474.63891602 C16.19673064 474.64151816 9.70596128 474.6441032 3.21519184 474.64651394 C2.01645071 474.64696011 2.01645071 474.64696011 0.79349258 474.64741529 C-20.39918258 474.65503371 -41.59185309 474.64861501 -62.78452617 474.63781792 C-65.06537562 474.63667015 -67.34622507 474.63552697 -69.62707453 474.63439109 C-71.1400328 474.63363585 -72.65299107 474.63287021 -74.16594933 474.63209409 C-85.44955776 474.62644164 -96.7331514 474.62776168 -108.01675987 474.63232231 C-120.84763151 474.63743471 -133.67844792 474.63155653 -146.5093058 474.61142801 C-153.05455429 474.60142357 -159.59973185 474.59644436 -166.14498711 474.60432053 C-172.13860465 474.61138532 -178.13204107 474.60455373 -184.12563477 474.5867169 C-186.29160017 474.58267769 -188.45758212 474.58366338 -190.62354132 474.59023576 C-211.34381627 474.64771926 -211.34381627 474.64771926 -221.38842773 471.19287109 C-222.71906605 470.75832042 -222.71906605 470.75832042 -224.07658595 470.31499094 C-235.45742149 466.43427319 -243.51300191 458.79735848 -250.38842773 449.19287109 C-251.23920898 448.13132812 -251.23920898 448.13132812 -252.10717773 447.04833984 C-259.56458621 437.19651835 -259.83692112 424.50873726 -259.76937866 412.59347534 C-259.77405863 411.29957764 -259.77873861 410.00567993 -259.7835604 408.67257321 C-259.79595028 405.12439241 -259.78995573 401.57645726 -259.78060174 398.02827621 C-259.77376178 394.18502342 -259.78431668 390.34181034 -259.7925415 386.49856567 C-259.80582794 378.98728998 -259.80302414 371.47610461 -259.79430358 363.9648255 C-259.78750831 357.8573221 -259.78661825 351.74984389 -259.78987503 345.6423378 C-259.79033473 344.77068518 -259.79079443 343.89903256 -259.79126806 343.00096623 C-259.7922273 341.22984447 -259.79319994 339.45872273 -259.79418583 337.68760099 C-259.80272455 321.11035534 -259.79292896 304.5331596 -259.77678473 287.95592214 C-259.76337821 273.7502122 -259.76571535 259.54457581 -259.77954102 245.33886719 C-259.79561556 228.81488655 -259.80190568 212.29094954 -259.79270422 195.76696217 C-259.79174864 194.00323241 -259.79080553 192.23950264 -259.78987503 190.47577286 C-259.7894122 189.60813239 -259.78894938 188.74049192 -259.78847253 187.84655931 C-259.78588861 181.74957207 -259.79024059 175.65261266 -259.79731369 169.55562973 C-259.80574954 162.12106751 -259.80340468 154.68660025 -259.78747146 147.25204884 C-259.77961742 143.46316325 -259.77644789 139.67443567 -259.78641891 135.88555145 C-259.7970863 131.7696648 -259.78430158 127.65417299 -259.76937866 123.53829956 C-259.77607083 122.35326367 -259.78276299 121.16822778 -259.78965795 119.94728172 C-259.67631643 103.77873284 -254.73761573 92.21494649 -243.74780273 80.45068359 C-240.26335125 77.11622505 -236.56603074 74.5779299 -232.38842773 72.19287109 C-231.41969727 71.60892578 -231.41969727 71.60892578 -230.43139648 71.01318359 C-221.28999887 65.91187413 -210.8821312 65.90019888 -200.66845703 65.9375 C-199.4475386 65.93387955 -198.22662018 65.93025909 -196.96870422 65.92652893 C-194.33707851 65.91967321 -191.70571019 65.91622999 -189.0741024 65.9184761 C-184.90869209 65.92133438 -180.74344788 65.9068675 -176.57807922 65.88949585 C-164.74201889 65.84269705 -152.90597316 65.81851413 -141.06982422 65.81201172 C-134.51437079 65.80825863 -127.95910874 65.7902205 -121.40373737 65.75691736 C-117.26644999 65.73675286 -113.12965771 65.73430678 -108.9923414 65.74519753 C-105.81529289 65.74842198 -102.63840957 65.72570565 -99.46142578 65.70703125 C-98.32208588 65.7152037 -97.18274597 65.72337616 -96.00888062 65.73179626 C-89.74784095 65.66622858 -86.2366183 65.21769098 -81.38842773 61.19287109 C-80.72842773 61.19287109 -80.06842773 61.19287109 -79.38842773 61.19287109 C-79.03264648 60.16806641 -79.03264648 60.16806641 -78.66967773 59.12255859 C-77.11876152 55.57625627 -75.06604252 52.49784693 -72.88842773 49.31787109 C-71.98859915 47.98589996 -71.08886228 46.65386687 -70.18920898 45.32177734 C-69.72724121 44.64131348 -69.26527344 43.96084961 -68.78930664 43.25976562 C-66.53606636 39.93527413 -64.30542277 36.59581337 -62.07592773 33.25537109 C-61.65698242 32.63025635 -61.23803711 32.0051416 -60.80639648 31.36108398 C-58.58575543 28.036795 -56.44667848 24.68377703 -54.38842773 21.25537109 C-53.72842773 20.24474609 -53.06842773 19.23412109 -52.38842773 18.19287109 C-51.72842773 18.19287109 -51.06842773 18.19287109 -50.38842773 18.19287109 C-50.18475586 17.47486328 -49.98108398 16.75685547 -49.77124023 16.01708984 C-47.99138475 12.38196128 -45.43811967 10.37230911 -42.26342773 8.00537109 C-41.6744873 7.56265869 -41.08554687 7.11994629 -40.47875977 6.66381836 C-35.98008504 3.39637938 -32.8698719 1.81174382 -27.38842773 1.19287109 C-26.65961867 1.10882208 -25.93080961 1.02477306 -25.17991543 0.93817711 C-16.79226883 0.06713909 -8.42254809 0.02317176 0 0 Z " fill="#5A9682" transform="translate(465.388427734375,280.80712890625)"/>
<path d="M0 0 C0 0.66 0 1.32 0 2 C0.56203125 1.99097656 1.1240625 1.98195313 1.703125 1.97265625 C15.86425569 2.47220534 29.80217036 8.96178426 42.15234375 15.51953125 C44.72725949 16.85820486 47.28730899 17.97587172 50 19 C50 19.66 50 20.32 50 21 C50.94875 21.309375 51.8975 21.61875 52.875 21.9375 C56 23 56 23 58 24 C58 24.66 58 25.32 58 26 C58.825 26.185625 59.65 26.37125 60.5 26.5625 C64.48473928 28.19908935 66.85052036 30.31057029 69.984375 33.19921875 C71.81700748 34.8365125 73.66272479 36.23846915 75.6875 37.625 C82.41627598 42.32758276 87.59498702 48.88269849 93 55 C93.65476318 55.72751465 93.65476318 55.72751465 94.32275391 56.46972656 C116 80.61118504 116 80.61118504 116 92 C116.66 92 117.32 92 118 92 C118.26554687 92.84304688 118.53109375 93.68609375 118.8046875 94.5546875 C119.33449219 96.19824219 119.33449219 96.19824219 119.875 97.875 C120.22304688 98.96554687 120.57109375 100.05609375 120.9296875 101.1796875 C121.81175231 104.08522723 121.81175231 104.08522723 124 106 C124.6328125 107.8046875 124.6328125 107.8046875 125.125 109.875 C125.29257812 110.55304688 125.46015625 111.23109375 125.6328125 111.9296875 C126 114 126 114 126 118 C126.66 118 127.32 118 128 118 C128.81783278 121.35288912 129.62829214 124.70751977 130.4375 128.0625 C130.78264648 129.47692383 130.78264648 129.47692383 131.13476562 130.91992188 C131.35712891 131.84482422 131.57949219 132.76972656 131.80859375 133.72265625 C132.01282959 134.56578369 132.21706543 135.40891113 132.42749023 136.27758789 C133.80647723 142.83497979 134.159555 149.14483435 134.16796875 155.81640625 C134.17129715 156.74992416 134.17462555 157.68344208 134.17805481 158.64524841 C134.18309949 160.61611441 134.1854639 162.58698888 134.18530273 164.55786133 C134.18747547 167.52895738 134.20561964 170.49967329 134.22460938 173.47070312 C134.26543538 186.91825318 133.43721381 199.63343442 129.9375 212.6875 C129.76412109 213.36232422 129.59074219 214.03714844 129.41210938 214.73242188 C128.68888506 217.52279306 127.9117984 220.2646048 127 223 C126.34 223 125.68 223 125 223 C124.938125 223.9075 124.87625 224.815 124.8125 225.75 C122.81100399 238.90268809 114.17848927 251.46336141 108 263 C107.34 263 106.68 263 106 263 C105.74347656 263.72832031 105.48695313 264.45664062 105.22265625 265.20703125 C99.85726131 277.46344462 86.89997933 289.00717658 76.74609375 297.47265625 C74.9381632 299.01124908 74.9381632 299.01124908 73.16796875 300.89453125 C46.03021746 327.24993295 3.14884895 339.37955858 -33.69604492 339.23925781 C-48.34743583 339.00963218 -62.1266149 337.11898059 -76 332.375 C-76.67933594 332.14554688 -77.35867188 331.91609375 -78.05859375 331.6796875 C-79.70667733 331.12258882 -81.35348012 330.5617034 -83 330 C-83 329.34 -83 328.68 -83 328 C-82.16082031 327.85304688 -81.32164062 327.70609375 -80.45703125 327.5546875 C-39.79757162 319.97189439 -1.6611146 300.37822376 22.73095703 265.88183594 C27.75299373 258.43476805 32.95044145 250.48572814 36 242 C36.66 242 37.32 242 38 242 C38.12117187 241.31292969 38.24234375 240.62585938 38.3671875 239.91796875 C38.61855469 238.56638672 38.61855469 238.56638672 38.875 237.1875 C39.11863281 235.84751953 39.11863281 235.84751953 39.3671875 234.48046875 C40 232 40 232 42 229 C46.40326561 211.16854166 45.24472347 192.52520471 45 174.3125 C44.9286002 168.94953498 44.86781554 163.58683248 44.83218384 158.22350121 C44.81300691 156.10673417 44.77554657 153.99083396 44.73706055 151.87434387 C44.68177725 144.6433276 45.06277616 138.64457747 48 132 C48.43542114 130.92127373 48.43542114 130.92127373 48.87963867 129.820755 C51.2019518 124.22740347 54.9623963 120.31980014 60 117 C63.5 116.0625 63.5 116.0625 66 116 C66 115.34 66 114.68 66 114 C67.74816858 113.49363393 69.49862263 112.99515381 71.25 112.5 C72.22453125 112.2215625 73.1990625 111.943125 74.203125 111.65625 C77 111 77 111 81 111 C81 110.34 81 109.68 81 109 C87.93 108.01 87.93 108.01 95 107 C93.01807427 101.05422282 86.40220825 98.07413036 81.0625 95.3125 C73.43813431 91.67518793 64.32631699 87.97803362 55.75 88.0078125 C51.71235342 87.99379289 49.71061071 87.62700945 46.609375 84.890625 C44.31564785 82.32347342 42.14613842 79.69105637 40 77 C31.62788974 68.24733928 21.78900412 61.13016663 10 58 C9.33258789 57.82025635 8.66517578 57.6405127 7.97753906 57.45532227 C2.05934699 55.99792939 -3.54588945 55.69744285 -9.625 55.75 C-10.52734375 55.74226563 -11.4296875 55.73453125 -12.359375 55.7265625 C-17.60142771 55.74184545 -21.99243343 56.28171735 -27 58 C-27.91523437 58.28359375 -28.83046875 58.5671875 -29.7734375 58.859375 C-47.78757428 65.02637678 -61.48483118 79.07487404 -69.9375 95.8125 C-70.43056641 96.83150391 -70.43056641 96.83150391 -70.93359375 97.87109375 C-71.65117421 99.30362617 -72.41583087 100.71342229 -73.22265625 102.09765625 C-76.7659983 108.41499086 -78.20897884 114.65220655 -79.3046875 121.75537109 C-80.04635575 125.85661993 -80.38628063 127.5046408 -83.734375 130.20703125 C-85.35085938 131.09455078 -85.35085938 131.09455078 -87 132 C-88.05870028 132.82404076 -89.09635808 133.67570599 -90.11328125 134.55078125 C-90.63470703 134.99856934 -91.15613281 135.44635742 -91.69335938 135.90771484 C-92.22767578 136.37129395 -92.76199219 136.83487305 -93.3125 137.3125 C-97.1402408 140.59888888 -100.98581319 143.8156114 -105 146.875 C-108.26514804 149.38163815 -111.15692913 152.01113062 -114 155 C-115.38952829 156.44359554 -116.78583202 157.88068862 -118.1875 159.3125 C-119.19876953 160.35857422 -119.19876953 160.35857422 -120.23046875 161.42578125 C-122 163 -122 163 -124 163 C-124.24363281 163.58265625 -124.48726563 164.1653125 -124.73828125 164.765625 C-126.21996771 167.38954034 -127.87600637 168.82441839 -130.1875 170.75 C-133.88923699 173.83586131 -136.97689074 177.19635462 -140.1105957 180.83691406 C-143.94943241 185.23180917 -148.01880385 189.41632819 -152.0390625 193.64453125 C-155.91543409 197.73791979 -159.6939124 201.89252967 -163.38769531 206.15136719 C-166.12719988 209.29242239 -168.96187274 212.34319643 -171.7878418 215.40649414 C-174.83551121 218.71656286 -177.83277019 222.06583271 -180.8125 225.4375 C-184.00033103 229.00238632 -187.28261343 232.00795715 -191 235 C-191.66 235.99 -192.32 236.98 -193 238 C-193.66 238 -194.32 238 -195 238 C-195.84124316 235.75267898 -196.67314832 233.50261215 -197.5 231.25 C-197.73847656 230.61578125 -197.97695313 229.9815625 -198.22265625 229.328125 C-199.44801758 225.96713393 -200 223.63128413 -200 220 C-200.66 220 -201.32 220 -202 220 C-202.27714844 218.71222656 -202.55429687 217.42445313 -202.83984375 216.09765625 C-203.20553472 214.41922846 -203.57143072 212.74084532 -203.9375 211.0625 C-204.11990234 210.21236328 -204.30230469 209.36222656 -204.49023438 208.48632812 C-204.66748047 207.67744141 -204.84472656 206.86855469 -205.02734375 206.03515625 C-205.18968506 205.2862915 -205.35202637 204.53742676 -205.51928711 203.76586914 C-205.84622796 201.98825697 -205.84622796 201.98825697 -207 201 C-211.73387421 170.14343306 -210.60953799 137.2407527 -199 108 C-198.45279297 106.57494141 -198.45279297 106.57494141 -197.89453125 105.12109375 C-194.51876593 96.74870829 -190.39167983 88.87378581 -186 81 C-185.46632813 80.02933594 -184.93265625 79.05867188 -184.3828125 78.05859375 C-183.92648437 77.37925781 -183.47015625 76.69992187 -183 76 C-182.34 76 -181.68 76 -181 76 C-180.71125 75.071875 -180.4225 74.14375 -180.125 73.1875 C-179 70 -179 70 -177 67 C-176.34 67 -175.68 67 -175 67 C-174.79890625 66.319375 -174.5978125 65.63875 -174.390625 64.9375 C-172.49846406 60.94057576 -169.79039896 58.17344721 -166.75 55 C-166.1302832 54.34644531 -165.51056641 53.69289063 -164.87207031 53.01953125 C-145.85569248 33.16800709 -145.85569248 33.16800709 -135 27 C-134.34 27 -133.68 27 -133 27 C-133 26.34 -133 25.68 -133 25 C-127.58644934 20.8857015 -121.18843167 18.02363328 -115.0625 15.125 C-114.4120874 14.81473877 -113.7616748 14.50447754 -113.09155273 14.18481445 C-110.20915525 12.85149381 -108.2148002 12 -105 12 C-105 11.34 -105 10.68 -105 10 C-103.87722656 9.67386719 -102.75445312 9.34773438 -101.59765625 9.01171875 C-100.085844 8.57063284 -98.57413165 8.12920443 -97.0625 7.6875 C-96.28358398 7.4603833 -95.50466797 7.2332666 -94.70214844 6.99926758 C-90.6814373 5.81865584 -86.70102682 4.58752313 -82.75 3.1875 C-79.53576897 2.16966017 -77.32073072 1.67863896 -74 2 C-74 1.34 -74 0.68 -74 0 C-49.69879498 -3.903141 -24.23120483 -5.1888027 0 0 Z " fill="#FBF9F5" transform="translate(565,379)"/>
<path d="M0 0 C0.73151779 0.00719055 1.46303558 0.0143811 2.21672058 0.02178955 C2.98754471 0.0214975 3.75836884 0.02120544 4.55255127 0.02090454 C7.10657413 0.02230059 9.66030713 0.03787454 12.21427917 0.05352783 C13.98261862 0.05725699 15.75096012 0.06010442 17.51930237 0.06210327 C22.17840763 0.06974741 26.83738862 0.08940255 31.4964447 0.11151123 C36.24872659 0.13195289 41.00102852 0.14110139 45.75334167 0.15118408 C55.08152134 0.17264774 64.40960868 0.20679305 73.73771667 0.24884033 C73.73771667 0.90884033 73.73771667 1.56884033 73.73771667 2.24884033 C74.54209167 2.53759033 75.34646667 2.82634033 76.17521667 3.12384033 C78.73771667 4.24884033 78.73771667 4.24884033 79.73771667 6.24884033 C79.73771667 12.84884033 79.73771667 19.44884033 79.73771667 26.24884033 C50.03771667 26.24884033 20.33771667 26.24884033 -10.26228333 26.24884033 C-10.26228333 0.04227081 -10.26228333 0.04227081 0 0 Z " fill="#599683" transform="translate(276.2622833251953,309.75115966796875)"/>
<path d="M0 0 C4.68353633 4.28634886 6.10374124 9.71831621 6.43359375 15.8828125 C6.45710439 17.63005065 6.45766277 19.37772001 6.4375 21.125 C6.42614014 22.50933228 6.42614014 22.50933228 6.41455078 23.92163086 C5.88344119 46.16039139 -6.47203984 64.86394607 -22 80 C-31.00923077 88 -31.00923077 88 -34 88 C-34 88.66 -34 89.32 -34 90 C-64.79039301 108 -64.79039301 108 -71 108 C-71 108.66 -71 109.32 -71 110 C-117.93902096 126.07509754 -117.93902096 126.07509754 -131.96875 120.90625 C-132.8040625 120.4421875 -133.639375 119.978125 -134.5 119.5 C-135.3559375 119.0359375 -136.211875 118.571875 -137.09375 118.09375 C-137.7228125 117.7328125 -138.351875 117.371875 -139 117 C-139 116.34 -139 115.68 -139 115 C-138.07960938 114.81824219 -137.15921875 114.63648438 -136.2109375 114.44921875 C-132.82479418 113.77681758 -129.43999299 113.09841195 -126.05615234 112.41455078 C-124.2112747 112.04259611 -122.36546057 111.67529351 -120.51953125 111.30859375 C-113.80154394 109.93034313 -107.17540558 108.3091083 -100.5625 106.5 C-99.81701904 106.29842285 -99.07153809 106.0968457 -98.3034668 105.88916016 C-93.67149101 104.59426628 -89.38960845 102.96461744 -85 101 C-83.7339591 100.50831057 -82.46398068 100.02641284 -81.1875 99.5625 C-80.506875 99.30726563 -79.82625 99.05203125 -79.125 98.7890625 C-77.73339313 98.27232613 -76.33761369 97.76665937 -74.9375 97.2734375 C-52.08179878 88.78190962 -26.42292436 73.94425289 -13.26953125 52.765625 C-12.64111328 51.89164063 -12.64111328 51.89164063 -12 51 C-11.34 51 -10.68 51 -10 51 C-9.62875 49.7625 -9.62875 49.7625 -9.25 48.5 C-8.30760712 45.86129993 -7.33532638 43.5926251 -6.0625 41.125 C-0.93131526 31.09238506 0.15232604 22.34634508 0.0625 11.125 C0.05573242 9.52011719 0.05573242 9.52011719 0.04882812 7.8828125 C0.03709749 5.25515014 0.02068228 2.62760462 0 0 Z " fill="#F4F5F1" transform="translate(554,560)"/>
<path d="M0 0 C183.48 0.33 366.96 0.66 556 1 C556 1.33 556 1.66 556 2 C550.49612188 2.92895107 545.19557497 3.14294357 539.61996078 3.13142776 C538.22641556 3.13450672 538.22641556 3.13450672 536.8047179 3.13764787 C533.68651001 3.1433098 530.5683464 3.14186162 527.45013428 3.14044189 C525.19408945 3.14302596 522.93804509 3.14603923 520.68200135 3.1494453 C514.47834705 3.15751305 508.27470432 3.15930473 502.0710454 3.16004276 C496.06933078 3.16170354 490.06762212 3.16802158 484.06591081 3.17412117 C467.99357365 3.19016627 451.92123745 3.19608175 435.84889371 3.20086992 C428.24826952 3.20320631 420.64764607 3.20680889 413.04702247 3.2105653 C387.03529487 3.22339645 361.0235677 3.23411841 335.01183701 3.2375679 C333.37970043 3.23778953 331.74756385 3.23801132 330.11542727 3.23823325 C328.47934795 3.23845389 326.84326864 3.23867438 325.20718932 3.2388947 C321.92491007 3.23933726 318.64263082 3.23978437 315.36035156 3.24023438 C314.54653993 3.24034377 313.7327283 3.24045316 312.89425572 3.24056586 C286.48000582 3.2442001 260.0657833 3.26013616 233.6515439 3.28342474 C205.73088331 3.30799657 177.81023838 3.3217394 149.88956666 3.32293582 C146.8275237 3.32310728 143.76548076 3.32332271 140.70343781 3.32357025 C139.57247922 3.3236539 139.57247922 3.3236539 138.41867298 3.32373925 C126.26578881 3.32489166 114.11293269 3.33592926 101.96005801 3.35045731 C89.75843058 3.36479211 77.55683927 3.36807632 65.35520574 3.36001733 C58.74023647 3.35594238 52.12534321 3.35711899 45.51038361 3.37107468 C39.46326809 3.38371642 33.41631952 3.38270258 27.36920455 3.37048396 C25.17354563 3.36851002 22.97787528 3.37168259 20.78223249 3.38032833 C17.81350602 3.39128462 14.8453831 3.38403114 11.87667465 3.3719368 C11.01058401 3.37953199 10.14449338 3.38712718 9.25215757 3.39495254 C3.34244223 3.34244223 3.34244223 3.34244223 0 0 Z " fill="#478A76" transform="translate(247,751)"/>
<path d="M0 0 C3.8026029 2.0050088 5.61790841 3.42686262 8 7 C8.60695266 11.20925614 8.43802698 14.93951362 6.8125 18.875 C4.15722613 21.98807971 1.99804331 23.66391508 -2.11328125 24.35546875 C-6.36093104 24.61960832 -9.14105997 24.36071501 -12.5 21.625 C-16.32193569 17.61196753 -16.39055607 14.93731164 -16.359375 9.55078125 C-15.78039966 5.44131496 -14.00085071 3.78650423 -11 1 C-7.53081128 -0.73459436 -3.79303468 -0.47173877 0 0 Z " fill="#F6F6F2" transform="translate(580,472)"/>
<path d="M0 0 C26.07 0 52.14 0 79 0 C79 0.66 79 1.32 79 2 C79.99 2.33 80.98 2.66 82 3 C81.67 3.66 81.34 4.32 81 5 C80.505 4.505 80.505 4.505 80 4 C77.4755093 3.87499848 74.97700383 3.81396462 72.45092773 3.79467773 C71.66074249 3.78477814 70.87055725 3.77487854 70.056427 3.76467896 C67.43218022 3.73297152 64.80791531 3.70827021 62.18359375 3.68359375 C60.36897803 3.66303219 58.5543672 3.64203594 56.73976135 3.62062073 C51.9541518 3.56531759 47.16849844 3.5159448 42.3828125 3.46777344 C37.50321536 3.41761843 32.62368215 3.36190112 27.74414062 3.30664062 C18.16281498 3.19895832 8.58143392 3.09753587 -1 3 C-0.67 2.01 -0.34 1.02 0 0 Z " fill="#669E8D" transform="translate(271,310)"/>
<path d="M0 0 C0.33 0 0.66 0 1 0 C2.08624441 4.40619739 2.16129505 8.71974106 2.16796875 13.23046875 C2.17129715 14.02093094 2.17462555 14.81139313 2.17805481 15.62580872 C2.1831047 17.29586203 2.18546374 18.96592538 2.18530273 20.63598633 C2.18747786 23.16179546 2.20562262 25.6871593 2.22460938 28.21289062 C2.28842075 46.06616514 2.28842075 46.06616514 0 52 C-0.99 52.495 -0.99 52.495 -2 53 C-1.93433838 52.14849365 -1.86867676 51.2969873 -1.80102539 50.41967773 C-1.02072281 39.63803137 -0.68893132 28.8678892 -0.4375 18.0625 C-0.39416685 16.30012314 -0.35054871 14.53775326 -0.30664062 12.77539062 C-0.2011528 8.51700016 -0.09948203 4.25853482 0 0 Z " fill="#4D8D7A" transform="translate(609,546)"/>
<path d="M0 0 C4.21363062 4.76374351 4.56598061 10.71491327 5.61181641 16.76708984 C6.0091403 19.05257686 6.4323821 21.33243787 6.85546875 23.61328125 C8.73795767 34.16870441 9.37028799 44.28907705 9 55 C8.01 55.495 8.01 55.495 7 56 C6.96559814 55.31301025 6.93119629 54.62602051 6.89575195 53.91821289 C6.02812179 37.68882081 4.07474058 22.16370735 0.42724609 6.32055664 C0 4 0 4 0 0 Z " fill="#488A76" transform="translate(693,496)"/>
<path d="M0 0 C2.04945312 -0.00216568 4.09834838 -0.02029683 6.14770508 -0.03930664 C27.53988858 -0.13266868 27.53988858 -0.13266868 34.0168457 4.18530273 C7.7818457 3.19530273 7.7818457 3.19530273 -18.9831543 2.18530273 C-18.9831543 1.85530273 -18.9831543 1.52530273 -18.9831543 1.18530273 C-12.65408114 -0.0210659 -6.41445876 -0.00075615 0 0 Z " fill="#4F907C" transform="translate(526.983154296875,373.814697265625)"/>
<path d="M0 0 C4.0040047 0.54089186 6.25946013 1.63995566 9.375 4.1875 C10.15101563 4.82042969 10.92703125 5.45335937 11.7265625 6.10546875 C12.47679687 6.73066406 13.22703125 7.35585938 14 8 C14.64710938 8.51175781 15.29421875 9.02351563 15.9609375 9.55078125 C21.06288307 13.68357995 25.27092401 17.91544773 26.8125 24.4375 C26.874375 25.283125 26.93625 26.12875 27 27 C24.19217893 24.51615829 22.27014162 21.90731058 20.3125 18.75 C15.52060642 11.41128137 8.97651286 6.24770233 1.43359375 1.91015625 C0.96050781 1.60980469 0.48742187 1.30945313 0 1 C0 0.67 0 0.34 0 0 Z " fill="#5A9482" transform="translate(817,352)"/>
<path d="M0 0 C0.99 0.33 1.98 0.66 3 1 C1.84371094 2.03060547 1.84371094 2.03060547 0.6640625 3.08203125 C-0.34911418 3.99201401 -1.36212643 4.90217987 -2.375 5.8125 C-2.88289062 6.26431641 -3.39078125 6.71613281 -3.9140625 7.18164062 C-6.32172796 9.35170752 -8.19061861 11.28592791 -10 14 C-10.66 14 -11.32 14 -12 14 C-12.226875 14.721875 -12.45375 15.44375 -12.6875 16.1875 C-14.24831013 19.53209313 -16.3031287 21.51603959 -19 24 C-17.49055381 14.08078215 -8.80488207 7.53407975 -1.7265625 1.08203125 C-1.15679688 0.72496094 -0.58703125 0.36789062 0 0 Z " fill="#54917F" transform="translate(517,447)"/>
<path d="M0 0 C4.53747575 6.80621363 4.74657998 15.04013988 4 23 C2.984375 25.86328125 2.984375 25.86328125 2 28 C1.67 28 1.34 28 1 28 C0.67 18.76 0.34 9.52 0 0 Z " fill="#508F7C" transform="translate(559,566)"/>
<path d="M0 0 C1.08441027 3.25323081 0.86523302 3.86914382 0 7 C-0.10931529 8.43399229 -0.1750065 9.87173698 -0.20532227 11.30957031 C-0.22526749 12.15013977 -0.24521271 12.99070923 -0.26576233 13.85675049 C-0.28247482 14.75480408 -0.29918732 15.65285767 -0.31640625 16.578125 C-0.33718735 17.5046991 -0.35796844 18.43127319 -0.37937927 19.38592529 C-0.44466961 22.34054272 -0.50366431 25.29524768 -0.5625 28.25 C-0.60570473 30.25521732 -0.64931965 32.26042585 -0.69335938 34.265625 C-0.80032999 39.17699404 -0.90165518 44.08845097 -1 49 C-1.33 49 -1.66 49 -2 49 C-2.19265169 42.96802226 -2.37131287 36.93585191 -2.53710938 30.90307617 C-2.59545175 28.85153132 -2.6575933 26.8000908 -2.72363281 24.7487793 C-2.81798045 21.79755654 -2.89858863 18.84622644 -2.9765625 15.89453125 C-3.00875885 14.97976517 -3.0409552 14.06499908 -3.0741272 13.12251282 C-3.17948026 8.62822884 -3.22001978 5.05645194 -1 1 C-0.67 0.67 -0.34 0.34 0 0 Z " fill="#4F907C" transform="translate(209,385)"/>
<path d="M0 0 C3.46623873 1.15541291 3.69646889 1.71318507 5.4375 4.75 C8.67731047 10.16580258 12.01231979 14.10717642 17 18 C18.68528688 19.64783606 20.35697047 21.31002677 22 23 C15.14522054 21.08703829 11.22028506 17.59208825 6.875 12.0625 C5.88113281 10.81146484 5.88113281 10.81146484 4.8671875 9.53515625 C0 2.92677824 0 2.92677824 0 0 Z " fill="#53907D" transform="translate(212,723)"/>
<path d="M0 0 C0.66 0 1.32 0 2 0 C0.80707557 3.5787733 0.18469831 3.73533533 -3.04296875 5.41015625 C-3.86990234 5.84263672 -4.69683594 6.27511719 -5.54882812 6.72070312 C-6.41958984 7.16349609 -7.29035156 7.60628906 -8.1875 8.0625 C-9.03892578 8.50916016 -9.89035156 8.95582031 -10.76757812 9.41601562 C-22.66009833 15.56922213 -22.66009833 15.56922213 -28 14 C-26.88882813 13.56429687 -25.77765625 13.12859375 -24.6328125 12.6796875 C-11.39925682 7.8945844 -11.39925682 7.8945844 0 0 Z " fill="#468975" transform="translate(543,683)"/>
<path d="M0 0 C0 4.37016224 -2.74410113 6.27129283 -5.625 9.25 C-6.72745882 10.41451668 -7.82903008 11.5798743 -8.9296875 12.74609375 C-9.46045898 13.30538574 -9.99123047 13.86467773 -10.53808594 14.44091797 C-13.13144868 17.20665185 -15.56683374 20.09371808 -18 23 C-18.66 22.67 -19.32 22.34 -20 22 C-13.64590293 14.31569943 -7.22050591 6.89959453 0 0 Z " fill="#E4EBE7" transform="translate(410,422)"/>
<path d="M0 0 C0.66 0 1.32 0 2 0 C-0.28010083 5.19941438 -4.34360732 8.67268582 -8.3125 12.625 C-9.07240234 13.40101563 -9.83230469 14.17703125 -10.61523438 14.9765625 C-11.72801758 16.0903125 -11.72801758 16.0903125 -12.86328125 17.2265625 C-13.53657471 17.90283691 -14.20986816 18.57911133 -14.90356445 19.27587891 C-17.16848268 21.13856116 -19.23795651 22.05836008 -22 23 C-19.27781663 20.27272844 -16.54934073 17.5523692 -13.80859375 14.84375 C-12.68486393 13.72919883 -11.56116645 12.61461505 -10.4375 11.5 C-9.87353516 10.94441406 -9.30957031 10.38882813 -8.72851562 9.81640625 C-6.21872841 7.32129615 -3.91086413 4.88624857 -1.72265625 2.09375 C-1.15417969 1.4028125 -0.58570313 0.711875 0 0 Z " fill="#E1EAE6" transform="translate(583,651)"/>
<path d="M0 0 C0.33 0 0.66 0 1 0 C0.35521919 6.34405026 -0.96246331 12.3329118 -2.5625 18.5 C-2.79646484 19.4178125 -3.03042969 20.335625 -3.27148438 21.28125 C-3.84333715 23.52197923 -4.41958293 25.76147688 -5 28 C-5.33 28 -5.66 28 -6 28 C-6.37740236 21.269658 -5.05945293 15.88244873 -3 9.5 C-2.71382813 8.5821875 -2.42765625 7.664375 -2.1328125 6.71875 C-1.43188888 4.47579441 -0.72083092 2.23662076 0 0 Z " fill="#498B77" transform="translate(363,490)"/>
<path d="M0 0 C-3.92286166 3.92286166 -10.93107508 4.74978815 -16.34765625 5.19140625 C-17.89974614 5.18821921 -19.45150196 5.10557941 -21 5 C-21.33 5.66 -21.66 6.32 -22 7 C-22 6.01 -22 5.02 -22 4 C-19.27238489 3.32636628 -16.543201 2.66090556 -13.8125 2 C-13.04357422 1.80921875 -12.27464844 1.6184375 -11.48242188 1.421875 C-7.57921747 0.48376579 -4.04770205 -0.25957208 0 0 Z " fill="#4B8D79" transform="translate(502,702)"/>
<path d="M0 0 C1.1948962 3.58468861 0.46340423 4.72157542 -1.15625 7.99609375 C-1.4759375 8.61613281 -1.795625 9.23617187 -2.125 9.875 C-2.56972656 10.79345703 -2.56972656 10.79345703 -3.0234375 11.73046875 C-5.14084361 15.92042067 -7.52833554 18.84066521 -11 22 C-9.23465356 17.15984684 -6.80463275 12.7164873 -4.375 8.1875 C-3.95476563 7.39923828 -3.53453125 6.61097656 -3.1015625 5.79882812 C-2.0699991 3.86464674 -1.03608828 1.93176017 0 0 Z " fill="#478A76" transform="translate(600,620)"/>
<path d="M0 0 C0.33 0 0.66 0 1 0 C1.02505615 0.56920166 1.0501123 1.13840332 1.07592773 1.72485352 C1.19293894 4.33757313 1.3151828 6.95002362 1.4375 9.5625 C1.47681641 10.45775391 1.51613281 11.35300781 1.55664062 12.27539062 C1.79332783 17.2458219 2.19821672 22.08823519 3 27 C2.01 27 1.02 27 0 27 C-1.50461426 17.97231444 -0.63647596 9.07712633 0 0 Z " fill="#4D8C79" transform="translate(207,685)"/>
<path d="M0 0 C0.66 0.33 1.32 0.66 2 1 C0.54601271 2.81598825 -0.91332325 4.62769519 -2.375 6.4375 C-3.59316406 7.95150391 -3.59316406 7.95150391 -4.8359375 9.49609375 C-7 12 -7 12 -9 13 C-9.66 12.34 -10.32 11.68 -11 11 C-7.37 7.37 -3.74 3.74 0 0 Z " fill="#53907D" transform="translate(429,555)"/>
<path d="M0 0 C2.53443491 2.53443491 3.74205499 3.80675497 5 7 C5 8.32 5 9.64 5 11 C4.01 11 3.02 11 2 11 C2 12.98 2 14.96 2 17 C1.67 17 1.34 17 1 17 C0.67 11.39 0.34 5.78 0 0 Z " fill="#DDE7E2" transform="translate(554,560)"/>
<path d="M0 0 C1.3921875 1.2065625 1.3921875 1.2065625 2.8125 2.4375 C7.49329579 5.84696854 12.36515597 5.88791449 18 6 C14.25816125 8.49455917 12.43756964 8.37606522 8 8 C4.19059076 6.63436273 2.48566417 5.94925269 0.625 2.3125 C0.41875 1.549375 0.2125 0.78625 0 0 Z " fill="#4A8B76" transform="translate(564,490)"/>
<path d="M0 0 C3 1 3 1 4.6875 3.5625 C6.51934244 8.36018259 6.96399698 12.59000755 5 17.5 C4.67 17.995 4.34 18.49 4 19 C2.3789114 15.7578228 3.09444823 12.2917475 3.2578125 8.7265625 C2.95814989 5.55740341 2.01193021 4.39114218 0 2 C0 1.34 0 0.68 0 0 Z " fill="#4A8B77" transform="translate(584,473)"/>
<path d="M0 0 C-6.59298265 2.96011466 -12.63324053 5.35935412 -20 5 C-17.44690137 2.44690137 -15.49828188 2.24059115 -12 1.4375 C-2.53050158 -0.75915047 -2.53050158 -0.75915047 0 0 Z " fill="#488B77" transform="translate(461,664)"/>
<path d="M0 0 C1.28357735 3.85073206 0.42743265 4.79711033 -1.3125 8.375 C-2.99824427 11.88173449 -4.59447166 15.37070148 -6 19 C-6.66 19 -7.32 19 -8 19 C-6.33333333 14 -4.66666667 9 -3 4 C-2.34 4 -1.68 4 -1 4 C-0.67 2.68 -0.34 1.36 0 0 Z " fill="#498B77" transform="translate(372,470)"/>
<path d="M0 0 C4.22489602 0.53280216 6.54080716 1.87678199 9.8125 4.5625 C10.60269531 5.20316406 11.39289062 5.84382813 12.20703125 6.50390625 C12.79871094 6.99761719 13.39039063 7.49132812 14 8 C13.01 8.33 12.02 8.66 11 9 C8.6875 7.3125 8.6875 7.3125 6 5 C4.906875 4.278125 3.81375 3.55625 2.6875 2.8125 C1.800625 2.214375 0.91375 1.61625 0 1 C0 0.67 0 0.34 0 0 Z " fill="#4A8C78" transform="translate(817,352)"/>
<path d="M0 0 C0.66 0.33 1.32 0.66 2 1 C0.7934375 1.4021875 0.7934375 1.4021875 -0.4375 1.8125 C-1.283125 2.204375 -2.12875 2.59625 -3 3 C-3.33 3.99 -3.66 4.98 -4 6 C-6.21701147 7.58965571 -8.57862473 8.72327486 -11 10 C-9.43989422 5.78771439 -6.5154607 3.65453155 -3 1 C-2.01 0.67 -1.02 0.34 0 0 Z " fill="#4D8D7A" transform="translate(481,509)"/>
<path d="M0 0 C-10.37357631 5.55580866 -10.37357631 5.55580866 -16 6 C-15.34 5.34 -14.68 4.68 -14 4 C-13.01 4 -12.02 4 -11 4 C-11 3.34 -11 2.68 -11 2 C-9.73392393 1.46770674 -8.46189588 0.94955456 -7.1875 0.4375 C-6.47980469 0.14746094 -5.77210938 -0.14257812 -5.04296875 -0.44140625 C-3 -1 -3 -1 0 0 Z " fill="#478975" transform="translate(492,652)"/>
<path d="M0 0 C-1.35236577 2.93879484 -2.89942659 5.29232911 -5 7.75 C-5.515625 8.36359375 -6.03125 8.9771875 -6.5625 9.609375 C-8 11 -8 11 -10 11 C-8.64763423 8.06120516 -7.10057341 5.70767089 -5 3.25 C-4.484375 2.63640625 -3.96875 2.0228125 -3.4375 1.390625 C-2 0 -2 0 0 0 Z " fill="#4D8E7B" transform="translate(583,650)"/>
<path d="M0 0 C0.66 0.33 1.32 0.66 2 1 C0.89718873 2.27200971 -0.20730769 3.54255853 -1.3125 4.8125 C-1.92738281 5.52019531 -2.54226563 6.22789062 -3.17578125 6.95703125 C-4.73334335 8.70136739 -6.32658875 10.36778041 -8 12 C-8.66 11.67 -9.32 11.34 -10 11 C-6.7 7.37 -3.4 3.74 0 0 Z " fill="#E0E9E5" transform="translate(841,729)"/>
<path d="M0 0 C-0.66 0 -1.32 0 -2 0 C-1.67 0.99 -1.34 1.98 -1 3 C-3.31 3 -5.62 3 -8 3 C-8 2.67 -8 2.34 -8 2 C-9.65 1.67 -11.3 1.34 -13 1 C-13 0.67 -13 0.34 -13 0 C-11.58456585 -0.19658808 -10.16755969 -0.38187546 -8.75 -0.5625 C-7.96109375 -0.66691406 -7.1721875 -0.77132812 -6.359375 -0.87890625 C-3.99467126 -1.00027349 -2.2488963 -0.69633257 0 0 Z " fill="#639A89" transform="translate(558,717)"/>
<path d="M0 0 C0.66 0.99 1.32 1.98 2 3 C-0.31 5.97 -2.62 8.94 -5 12 C-5.33 11.01 -5.66 10.02 -6 9 C-5.34 8.01 -4.68 7.02 -4 6 C-3.34 6 -2.68 6 -2 6 C-1.34 4.02 -0.68 2.04 0 0 Z " fill="#E3EBE7" transform="translate(546,605)"/>
<path d="M0 0 C3.82792868 1.5595265 6.36359864 3.83631836 9 7 C8.63671875 9.1640625 8.63671875 9.1640625 8 11 C6.66375099 9.35653302 5.33107149 7.71016314 4 6.0625 C3.2575 5.14597656 2.515 4.22945313 1.75 3.28515625 C0 1 0 1 0 0 Z " fill="#4D8D7A" transform="translate(633,292)"/>
<path d="M0 0 C-0.33 0.66 -0.66 1.32 -1 2 C-3.75078884 2.91692961 -5.35948913 3.10886083 -8.1875 3.0625 C-10.0746875 3.0315625 -10.0746875 3.0315625 -12 3 C-8.40198016 -0.59801984 -4.84291279 -0.09137571 0 0 Z " fill="#478A76" transform="translate(568,715)"/>
<path d="M0 0 C0.66 0.33 1.32 0.66 2 1 C-1.23507998 5.4114727 -4.84557192 5.84694558 -9.953125 6.703125 C-10.62859375 6.80109375 -11.3040625 6.8990625 -12 7 C-10.58982699 4.17965397 -8.91174979 4.02527016 -6 2.9375 C-2.74402427 1.88571928 -2.74402427 1.88571928 0 0 Z " fill="#73A394" transform="translate(609,698)"/>
<path d="M0 0 C1 3 1 3 -0.4375 6.1875 C-1.2109375 7.5796875 -1.2109375 7.5796875 -2 9 C-2.66 9 -3.32 9 -4 9 C-4.66 10.32 -5.32 11.64 -6 13 C-6 9.30581799 -4.71820705 7.22163822 -3 4 C-2.34 4 -1.68 4 -1 4 C-0.67 2.68 -0.34 1.36 0 0 Z " fill="#4C8D7A" transform="translate(546,602)"/>
<path d="M0 0 C1.12758089 3.38274266 0.81750262 4.76778223 0.0625 8.1875 C-0.13214844 9.08855469 -0.32679688 9.98960937 -0.52734375 10.91796875 C-0.68332031 11.60503906 -0.83929687 12.29210937 -1 13 C-3 11 -3 11 -3.046875 8.90625 C-2.94890625 8.1121875 -2.8509375 7.318125 -2.75 6.5 C-2.66234375 5.7059375 -2.5746875 4.911875 -2.484375 4.09375 C-2 2 -2 2 0 0 Z " fill="#498B77" transform="translate(564,476)"/>
<path d="M0 0 C0.66 0 1.32 0 2 0 C1.67 6.27 1.34 12.54 1 19 C0.67 19 0.34 19 0 19 C-0.19425873 16.20865148 -0.38069517 13.41716313 -0.5625 10.625 C-0.61857422 9.8309375 -0.67464844 9.036875 -0.73242188 8.21875 C-1.11328125 2.2265625 -1.11328125 2.2265625 0 0 Z " fill="#498D79" transform="translate(267,315)"/>
<path d="M0 0 C0.66 0.33 1.32 0.66 2 1 C-0.31 3.64 -2.62 6.28 -5 9 C-5.99 8.67 -6.98 8.34 -8 8 C-5.36 5.36 -2.72 2.72 0 0 Z " fill="#4E8F7B" transform="translate(416,569)"/>
<path d="M0 0 C5.02692063 0.45699278 8.14896261 2.99241748 12 6 C11.67 6.66 11.34 7.32 11 8 C9.16399255 6.85845641 7.33125195 5.71165684 5.5 4.5625 C4.4790625 3.92441406 3.458125 3.28632813 2.40625 2.62890625 C1.6121875 2.09136719 0.818125 1.55382812 0 1 C0 0.67 0 0.34 0 0 Z " fill="#478975" transform="translate(584,441)"/>
<path d="M0 0 C7.50769231 0.61538462 7.50769231 0.61538462 10 2.5625 C10.33 3.036875 10.66 3.51125 11 4 C6.94393835 3.53199289 3.53411321 3.12046792 0 1 C0 0.67 0 0.34 0 0 Z " fill="#4B8A77" transform="translate(482,710)"/>
<path d="M0 0 C1.13643966 3.40931897 0.86747764 4.00335456 -0.4375 7.1875 C-0.72496094 7.90292969 -1.01242187 8.61835937 -1.30859375 9.35546875 C-1.53675781 9.89816406 -1.76492188 10.44085937 -2 11 C-2.66 11 -3.32 11 -4 11 C-2.25 3.375 -2.25 3.375 0 0 Z " fill="#498A77" transform="translate(558,601)"/>
<path d="M0 0 C0.99 0.33 1.98 0.66 3 1 C2.071875 1.763125 1.14375 2.52625 0.1875 3.3125 C-1.98276101 5.11848552 -4.05568065 6.9476629 -6 9 C-5.52797514 4.75177626 -3.03344482 2.80010291 0 0 Z " fill="#4F8E7B" transform="translate(449,535)"/>
<path d="M0 0 C0.66 0 1.32 0 2 0 C0.18690997 3.77727089 -1.9073259 7.37269822 -4 11 C-4.66 11 -5.32 11 -6 11 C-4.54997977 6.89160936 -2.6020866 3.49655387 0 0 Z " fill="#468A76" transform="translate(618,499)"/>
<path d="M0 0 C0.66 0.33 1.32 0.66 2 1 C0.92456217 1.98783194 -0.16073217 2.96493943 -1.25 3.9375 C-2.15492188 4.75541016 -2.15492188 4.75541016 -3.078125 5.58984375 C-5.08467305 7.06212799 -6.57002449 7.57529189 -9 8 C-6.14723863 5.06799526 -3.34920216 2.35684596 0 0 Z " fill="#4E8D7A" transform="translate(562,670)"/>
<path d="M0 0 C0 3.39593478 -0.52165948 4.06619881 -2.5 6.6875 C-2.9640625 7.31011719 -3.428125 7.93273437 -3.90625 8.57421875 C-4.2671875 9.04472656 -4.628125 9.51523437 -5 10 C-5.33 9.34 -5.66 8.68 -6 8 C-4.40382422 4.16917814 -3.50015029 2.33343353 0 0 Z " fill="#4D8E7B" transform="translate(504,461)"/>
<path d="M0 0 C3.68006822 3.38168431 5.9785845 6.42521756 8 11 C4.50892621 9.83630874 4.14777237 9.11026462 2.3125 6.0625 C1.87550781 5.35222656 1.43851563 4.64195312 0.98828125 3.91015625 C0 2 0 2 0 0 Z " fill="#488A76" transform="translate(669,447)"/>
<path d="M0 0 C0.66 0.66 1.32 1.32 2 2 C-0.64 4.97 -3.28 7.94 -6 11 C-6.66 10.67 -7.32 10.34 -8 10 C-5.36 6.7 -2.72 3.4 0 0 Z " fill="#DAE5E0" transform="translate(398,434)"/>
<path d="M0 0 C0.66 0.33 1.32 0.66 2 1 C0.02 3.97 0.02 3.97 -2 7 C-3.32 6.67 -4.64 6.34 -6 6 C-4.02 4.02 -2.04 2.04 0 0 Z " fill="#659C8A" transform="translate(224,359)"/>
<path d="M0 0 C0.33 0.66 0.66 1.32 1 2 C-0.2608012 3.03319813 -1.53403258 4.05124379 -2.8125 5.0625 C-3.87404297 5.91521484 -3.87404297 5.91521484 -4.95703125 6.78515625 C-5.63121094 7.18605469 -6.30539062 7.58695313 -7 8 C-7.99 7.67 -8.98 7.34 -10 7 C-6.7 4.69 -3.4 2.38 0 0 Z " fill="#D0DFD9" transform="translate(557,676)"/>
<path d="M0 0 C1.09898702 3.29696105 0.87124444 4.40494903 0.0625 7.6875 C-0.22947266 8.89986328 -0.22947266 8.89986328 -0.52734375 10.13671875 C-0.68332031 10.75160156 -0.83929687 11.36648438 -1 12 C-1.85696068 8.68737889 -2.46228519 5.37992169 -3 2 C-2.01 1.34 -1.02 0.68 0 0 Z " fill="#7EAC9D" transform="translate(608,598)"/>
<path d="M0 0 C0.33 0 0.66 0 1 0 C0.67 3.3 0.34 6.6 0 10 C-0.66 10 -1.32 10 -2 10 C-2.17942163 6.05272412 -2.09350689 3.4019487 0 0 Z " fill="#52907D" transform="translate(697,581)"/>
<path d="M0 0 C3.39417765 3.12621626 5.6062718 5.56541027 7 10 C4.66666667 7.66666667 2.33333333 5.33333333 0 3 C0 2.01 0 1.02 0 0 Z " fill="#4C8C78" transform="translate(662,437)"/>
<path d="M0 0 C0 3 0 3 -1.2421875 4.60546875 C-1.78101563 5.12753906 -2.31984375 5.64960938 -2.875 6.1875 C-3.40867187 6.71730469 -3.94234375 7.24710937 -4.4921875 7.79296875 C-6 9 -6 9 -8 9 C-7.67 8.01 -7.34 7.02 -7 6 C-6.34 6 -5.68 6 -5 6 C-5 5.34 -5 4.68 -5 4 C-3.37373596 2.61767557 -1.7074998 1.28062485 0 0 Z " fill="#4D8E7A" transform="translate(411,419)"/>
<path d="M0 0 C3 1 3 1 4.75 3.9375 C5.1625 4.948125 5.575 5.95875 6 7 C5.67 7.66 5.34 8.32 5 9 C4.16094435 7.87926138 3.32892169 6.75325453 2.5 5.625 C2.0359375 4.99851562 1.571875 4.37203125 1.09375 3.7265625 C0 2 0 2 0 0 Z " fill="#498B77" transform="translate(212,723)"/>
<path d="M0 0 C0.33 0 0.66 0 1 0 C1 2.31 1 4.62 1 7 C0.34 7 -0.32 7 -1 7 C-1 7.66 -1 8.32 -1 9 C-1.99 9.33 -2.98 9.66 -4 10 C-2.66666667 6.66666667 -1.33333333 3.33333333 0 0 Z " fill="#639A89" transform="translate(685,616)"/>
<path d="M0 0 C0.66 0.99 1.32 1.98 2 3 C0.63016497 6.16115776 0.0109362 6.9927092 -3 9 C-2.01 6.03 -1.02 3.06 0 0 Z " fill="#DAE5E0" transform="translate(601,621)"/>
<path d="M0 0 C0.33 0 0.66 0 1 0 C1.25 2.8125 1.25 2.8125 1 6 C-1 7.875 -1 7.875 -3 9 C-2.01 6.03 -1.02 3.06 0 0 Z " fill="#6DA192" transform="translate(210,378)"/>
<path d="M0 0 C6.52307692 -0.36923077 6.52307692 -0.36923077 8.9375 1.5 C9.288125 1.995 9.63875 2.49 10 3 C2.25 2.25 2.25 2.25 0 0 Z " fill="#488B76" transform="translate(803,348)"/>
<path d="M0 0 C1 2 1 2 0.3125 4.5 C-1.15567038 7.29651501 -2.09303901 7.93411431 -5 9 C-3.50163895 5.88801935 -1.80066242 2.9465385 0 0 Z " fill="#679D8C" transform="translate(408,307)"/>
<path d="M0 0 C0.66 0.33 1.32 0.66 2 1 C-1.465 3.97 -1.465 3.97 -5 7 C-5.66 6.34 -6.32 5.68 -7 5 C-6.030625 4.360625 -5.06125 3.72125 -4.0625 3.0625 C-1.23963731 1.3034741 -1.23963731 1.3034741 0 0 Z " fill="#D6E2DD" transform="translate(829,741)"/>
<path d="M0 0 C-1 3 -1 3 -3.375 4.75 C-6 6 -6 6 -9 5 C-7.87926138 4.16094435 -6.75325453 3.32892169 -5.625 2.5 C-4.99851562 2.0359375 -4.37203125 1.571875 -3.7265625 1.09375 C-2 0 -2 0 0 0 Z " fill="#4A8B78" transform="translate(513,638)"/>
<path d="M0 0 C0.99 0.33 1.98 0.66 3 1 C1.35 3.64 -0.3 6.28 -2 9 C-3 6 -3 6 -1.5625 2.8125 C-1.046875 1.884375 -0.53125 0.95625 0 0 Z " fill="#4A8B77" transform="translate(675,636)"/>
<path d="M0 0 C0.66 0.33 1.32 0.66 2 1 C0.70700306 3.88437779 -0.65941363 5.87219421 -3 8 C-3.66 7.67 -4.32 7.34 -5 7 C-3.35 4.69 -1.7 2.38 0 0 Z " fill="#DDE7E3" transform="translate(594,636)"/>
<path d="M0 0 C-1.15173355 2.46800047 -2.04783565 4.04783565 -4 6 C-4.99 5.67 -5.98 5.34 -7 5 C-2.25 0 -2.25 0 0 0 Z " fill="#4D8C79" transform="translate(384,606)"/>
<path d="M0 0 C2.02350324 3.03525486 2.32124018 4.19426202 2.625 7.6875 C2.69976563 8.49574219 2.77453125 9.30398438 2.8515625 10.13671875 C2.90054688 10.75160156 2.94953125 11.36648438 3 12 C1 11 1 11 0.33203125 9.2578125 C0.16058594 8.55398438 -0.01085937 7.85015625 -0.1875 7.125 C-0.36667969 6.42632812 -0.54585937 5.72765625 -0.73046875 5.0078125 C-1 3 -1 3 0 0 Z " fill="#77A596" transform="translate(685,472)"/>
<path d="M0 0 C0.33 0.99 0.66 1.98 1 3 C0.00390625 4.82421875 0.00390625 4.82421875 -1.4375 6.6875 C-1.91058594 7.31011719 -2.38367188 7.93273437 -2.87109375 8.57421875 C-3.24363281 9.04472656 -3.61617188 9.51523437 -4 10 C-4.33 9.34 -4.66 8.68 -5 8 C-4.00390625 6.0546875 -4.00390625 6.0546875 -2.5625 3.875 C-2.08941406 3.15054687 -1.61632812 2.42609375 -1.12890625 1.6796875 C-0.75636719 1.12539063 -0.38382812 0.57109375 0 0 Z " fill="#488A76" transform="translate(381,454)"/>
<path d="M0 0 C3.36591866 1.44253657 5.51047079 3.33264727 8 6 C7.67 6.66 7.34 7.32 7 8 C5.83035398 6.8572081 4.66435444 5.71068285 3.5 4.5625 C2.8503125 3.92441406 2.200625 3.28632813 1.53125 2.62890625 C0 1 0 1 0 0 Z " fill="#4C8B78" transform="translate(598,450)"/>
<path d="M0 0 C1.9375 0.625 1.9375 0.625 4 2 C4.75 5.125 4.75 5.125 5 8 C2.20127563 5.47211993 0.54226981 3.79588866 0 0 Z " fill="#508F7B" transform="translate(839,371)"/>
<path d="M0 0 C0.66 0.99 1.32 1.98 2 3 C0.35 4.65 -1.3 6.3 -3 8 C-3 4.42424104 -1.91159393 2.94704065 0 0 Z " fill="#649C8A" transform="translate(413,299)"/>
<path d="M0 0 C0.66 0.33 1.32 0.66 2 1 C0.8125 2.5 0.8125 2.5 -1 4 C-3.6875 4.1875 -3.6875 4.1875 -6 4 C-3.94766315 1.7522025 -2.99332739 0.9977758 0 0 Z " fill="#659C8A" transform="translate(433,283)"/>
</svg>
